<svg width="24" height="18" viewBox="0 0 24 18" fill="none" xmlns="http://www.w3.org/2000/svg">
<path d="M24 8H22V6H20V8H18V10H20V12H22V10H24V8Z" fill="#ED2224"/>
<path d="M16.5264 8.00446L9 8V11H13.3011C13.069 12.2697 11.7975 14.5859 8.5 14.5859C5.59784 14.5859 3.22998 12.1816 3.22998 9.21875C3.22998 6.25592 5.59784 3.85162 8.5 3.85162C10.1514 3.85162 11.2564 4.5559 11.8879 5.16302L14.195 2.94091C12.7136 1.55658 10.795 0.71875 8.5 0.71875C3.80072 0.71875 0 4.51947 0 9.21875C0 13.918 3.80072 17.7188 8.5 17.7188C14.3478 17.7188 17.3599 12.865 16.5264 8.00446Z" fill="#ED2224"/>
</svg>
