<svg width="32" height="32" viewBox="0 0 32 32" fill="none" xmlns="http://www.w3.org/2000/svg">
<path d="M25.9557 3.19995C27.5267 3.19995 28.8002 4.45601 28.8002 6.00543L28.8002 25.9945C28.8002 27.5439 27.5267 28.8 25.9557 28.8H21.6891C20.1181 28.7999 18.8446 27.5439 18.8446 25.9945L18.8446 6.00543C18.8446 4.45601 20.1181 3.19995 21.6891 3.19995L25.9557 3.19995Z" stroke="white" stroke-width="2" stroke-linecap="round" stroke-linejoin="round"/>
<path d="M6.04464 3.19995C4.4737 3.19995 3.2002 4.45601 3.2002 6.00543L3.2002 25.9945C3.2002 27.5439 4.4737 28.8 6.04464 28.8H10.3113C11.8822 28.7999 13.1557 27.5439 13.1557 25.9945L13.1557 6.00543C13.1557 4.45601 11.8822 3.19995 10.3113 3.19995L6.04464 3.19995Z" stroke="white" stroke-width="2" stroke-linecap="round" stroke-linejoin="round"/>
</svg>
