<svg width="24" height="20" viewBox="0 0 24 20" fill="none" xmlns="http://www.w3.org/2000/svg">
<path d="M24 2.5998C23.1 2.9998 22.2 3.2998 21.2 3.3998C22.2 2.7998 23 1.7998 23.4 0.699805C22.4 1.2998 21.4 1.6998 20.3 1.8998C19.4 0.899805 18.1 0.299805 16.7 0.299805C14 0.299805 11.8 2.4998 11.8 5.1998C11.8 5.5998 11.8 5.9998 11.9 6.2998C7.7 6.0998 4.1 4.0998 1.7 1.0998C1.2 1.8998 1 2.6998 1 3.5998C1 5.2998 1.9 6.7998 3.2 7.6998C2.4 7.6998 1.6 7.4998 1 7.0998C1 7.0998 1 7.0998 1 7.1998C1 9.5998 2.7 11.5998 4.9 11.9998C4.5 12.0998 4.1 12.1998 3.6 12.1998C3.3 12.1998 3 12.1998 2.7 12.0998C3.3 14.0998 5.1 15.4998 7.3 15.4998C5.6 16.7998 3.5 17.5998 1.2 17.5998C0.8 17.5998 0.4 17.5998 0 17.4998C2.2 18.8998 4.8 19.6998 7.5 19.6998C16.6 19.6998 21.5 12.1998 21.5 5.6998C21.5 5.4998 21.5 5.2998 21.5 5.0998C22.5 4.39981 23.3 3.4998 24 2.5998Z" fill="#ED2224"/>
</svg>
